<svg width="22" height="22" viewBox="0 0 22 22" fill="none" xmlns="http://www.w3.org/2000/svg">
<path d="M6.51624 21.4611C5.64026 21.4211 4.8119 21.0547 4.19701 20.4353C3.82548 20.0455 3.54836 19.577 3.38661 19.0653C3.22487 18.5537 3.18274 18.0123 3.26342 17.4821L3.49044 15.7115C3.53879 15.3345 3.49387 14.9514 3.35959 14.5954C3.22531 14.2394 3.00567 13.9211 2.71961 13.6678L1.36237 12.4663C0.962086 12.1278 0.643022 11.7051 0.42841 11.2291C0.213799 10.753 0.109045 10.2355 0.121761 9.71426C0.151423 8.94212 0.444908 8.20286 0.954167 7.6176C1.46343 7.03235 2.15823 6.6358 2.92474 6.49296L4.83122 6.13423C5.2082 6.06329 5.56213 5.90259 5.86245 5.66596C6.16277 5.42934 6.40049 5.1239 6.55513 4.77599L7.2656 3.17758C7.51962 2.5709 7.93766 2.04542 8.47372 1.65897C9.00979 1.27253 9.64308 1.0401 10.3039 0.987272C10.9516 0.950884 11.5964 1.09745 12.1632 1.4099C12.7301 1.72236 13.1958 2.18786 13.5061 2.75226L14.4389 4.43758C14.6236 4.77119 14.8874 5.05527 15.2076 5.26535C15.5277 5.47543 15.8947 5.60518 16.2768 5.64343L18.0866 5.82457C18.6116 5.86524 19.1208 6.02148 19.5771 6.28192C20.0333 6.54235 20.4252 6.9004 20.724 7.32994C21.1575 7.97194 21.3582 8.7407 21.2933 9.51043C21.2283 10.2801 20.9016 11.0052 20.3665 11.567L19.0373 12.9671C18.7746 13.2437 18.5838 13.5795 18.4812 13.9454C18.3785 14.3113 18.3672 14.6965 18.4482 15.0677L18.8313 16.8239C18.9541 17.3308 18.9618 17.8584 18.8538 18.3686C18.7457 18.8788 18.5247 19.3589 18.2067 19.7742C17.7262 20.3844 17.0501 20.814 16.29 20.9922C15.5298 21.1703 14.731 21.0864 14.0255 20.7543L12.268 19.9339C11.9214 19.7721 11.5402 19.6961 11.1573 19.7126C10.7744 19.7291 10.4014 19.8376 10.0702 20.0286L8.39309 20.9962C7.8251 21.3254 7.17382 21.4868 6.51624 21.4611Z" fill="white"/>
</svg>
